<?xml version="1.0" standalone="no"?><!DOCTYPE svg PUBLIC "-//W3C//DTD SVG 1.1//EN" "http://www.w3.org/Graphics/SVG/1.1/DTD/svg11.dtd"><svg t="1646893700519" class="icon" viewBox="0 0 1024 1024" version="1.1" xmlns="http://www.w3.org/2000/svg" p-id="2922" xmlns:xlink="http://www.w3.org/1999/xlink" width="200" height="200"><defs><style type="text/css"></style></defs><path d="M512 707.52l200.8 105.568-38.336-223.616 162.432-158.336-224.48-32.64L512 195.104l-100.416 203.456-224.48 32.608 162.432 158.336-38.336 223.616 200.8-105.6z m0 81.536l-181.888 95.616a64 64 0 0 1-92.832-67.456l34.72-202.56-147.136-143.392a64 64 0 0 1 35.456-109.184l203.36-29.536 90.944-184.256a64 64 0 0 1 114.752 0l90.944 184.256 203.36 29.536a64 64 0 0 1 35.456 109.184L752 614.688l34.72 202.528a64 64 0 0 1-92.832 67.456L512 789.056z" fill="#666666" p-id="2923"></path></svg>