<?xml version="1.0" standalone="no"?><!DOCTYPE svg PUBLIC "-//W3C//DTD SVG 1.1//EN" "http://www.w3.org/Graphics/SVG/1.1/DTD/svg11.dtd"><svg t="1648357806912" class="icon" viewBox="0 0 1024 1024" version="1.1" xmlns="http://www.w3.org/2000/svg" p-id="2109" xmlns:xlink="http://www.w3.org/1999/xlink" width="200" height="200"><defs><style type="text/css">@font-face { font-family: feedback-iconfont; src: url("//at.alicdn.com/t/font_1031158_u69w8yhxdu.woff2?t=1630033759944") format("woff2"), url("//at.alicdn.com/t/font_1031158_u69w8yhxdu.woff?t=1630033759944") format("woff"), url("//at.alicdn.com/t/font_1031158_u69w8yhxdu.ttf?t=1630033759944") format("truetype"); }
</style></defs><path d="M205.284224 51.2h614.4c14.08 0 25.6-11.52 25.6-25.6s-11.52-25.6-25.6-25.6H205.284224c-14.08 0-25.6 11.52-25.6 25.6s11.52 25.6 25.6 25.6zM1015.524224 569.6l-486.4-435.2c-10.24-8.96-24.32-8.96-34.56 0l-486.4 435.2c-7.68 7.68-10.24 17.92-6.4 28.16S15.844224 614.4 26.084224 614.4h179.2v384c0 14.08 11.52 25.6 25.6 25.6h563.2c14.08 0 25.6-11.52 25.6-25.6V614.4h179.2c10.24 0 20.48-6.4 24.32-16.64s1.28-20.48-7.68-28.16zM794.084224 563.2c-14.08 0-25.6 11.52-25.6 25.6v384H256.484224V588.8c0-14.08-11.52-25.6-25.6-25.6H92.644224L512.484224 188.16 932.324224 563.2H794.084224z" fill="#333333" p-id="2110"></path></svg>